<svg xmlns="http://www.w3.org/2000/svg" viewBox="0 0 512 512" style="height: 217px; width: 217px;"><defs><filter id="shadow-1" height="300%" width="300%" x="-100%" y="-100%"><feFlood flood-color="rgba(253, 226, 5, 1)" result="flood"></feFlood><feComposite in="flood" in2="SourceGraphic" operator="atop" result="composite"></feComposite><feGaussianBlur in="composite" stdDeviation="20" result="blur"></feGaussianBlur><feOffset result="offset"></feOffset><feComposite in="SourceGraphic" in2="offset" operator="over"></feComposite></filter></defs><g class="" transform="translate(0,0)" style=""><path d="M227.54 25.87l128.997 177.28-219.59-169.19L259.07 198.92 20.78 26.128h-.005l180.06 232.19L35.878 129.186l169.19 225.433L20.17 219.052l210.703 228.224c59.994 56.81 154.88 55.822 213.664-2.963 58.782-58.783 59.77-153.668 2.962-213.664L227.54 25.87zm128.448 222.855c27.394 0 54.786 10.45 75.686 31.35 41.8 41.8 41.8 109.574 0 151.374s-109.573 41.8-151.373 0c-41.8-41.802-41.8-109.575 0-151.376 20.9-20.9 48.295-31.35 75.688-31.35zm-6.734 20.734c-17.067.057-36.98 7.253-52.576 20.872-13.134 11.468-20.463 25.015-22.217 36.897-1.753 11.88 1.438 21.776 10.216 29.11 17.555 14.667 55.232 11.185 81.5-11.752 13.134-11.47 20.462-25.015 22.217-36.897 1.754-11.88-1.438-21.776-10.215-29.11-7.132-5.96-17.247-9.16-28.924-9.12zm47.572 124.368c-8.597.03-19.063 3.706-27.14 10.65-6.803 5.848-10.36 12.6-11.172 18.01-.812 5.41.45 9.185 4.314 12.364 7.73 6.357 27.337 5.207 40.942-6.49 6.802-5.846 10.36-12.597 11.17-18.008.813-5.412-.45-9.187-4.313-12.366-3.14-2.582-7.918-4.18-13.8-4.16z" fill="#f5a623" fill-opacity="1" filter="url(#shadow-1)"></path></g><g class="" transform="translate(244,246)" style=""><g transform="translate(6.4, 6.4) scale(0.8, 0.8) rotate(150, 128, 128)"><circle cx="128" cy="128" r="128" fill="#000" fill-opacity="1"></circle><circle stroke="#d0021b" stroke-opacity="1" fill="#000" fill-opacity="1" stroke-width="18" cx="128" cy="128" r="101"></circle><path fill="#d0021b" fill-opacity="1" d="M79.29 62.53l5.74 17.52 12.78 39.05-47.93 34.7 59.32.1 18.4 56.2 18.2-56.2 60.3.1-48.8-35.2 18.1-55.9-47.7 34.54zm22.91 31.3l15.2 11.07-9.4 6.8zm50.4.38L147 111.4l-9.1-6.6zm-24.9 17.99l15.4 11.2-6 18.5h-19.2l-6-18.2zm25.7 18.6l15.5 11.2-19.2-.1zm-51.7.2l3.6 10.9-18.47-.1zm20.2 22.9h11.3l-5.6 17.4z"></path></g></g></svg>